<svg width="20" height="20" viewBox="0 0 20 20" fill="none" xmlns="http://www.w3.org/2000/svg">
<path d="M17.4322 0.565456L19.9891 3.12235L18.6874 4.37713L19.9658 5.65558L18.6641 6.91036L19.9426 8.18881L18.6409 9.44359L19.9193 10.722L18.6176 11.9768L19.8961 13.2553L17.2927 15.7648L14.7358 13.2079L16.0375 11.9531L14.7591 10.6747L16.0607 9.41992L14.7823 8.14147L3.06709 19.4345L0.51019 16.8776L12.2254 5.58457L10.9469 4.30612L9.64526 5.5609L8.36681 4.28245L7.06512 5.53723L4.50822 2.98033L7.1116 0.470773L8.39005 1.74922L9.69174 0.494444L10.9702 1.77289L12.2719 0.518115L13.5503 1.79656L14.852 0.541786L16.1305 1.82023" fill="#F7F7F6"/>
</svg>
