<svg width="95" height="95" viewBox="0 0 95 95" fill="none" xmlns="http://www.w3.org/2000/svg">
<path d="M43.479 2.70423C45.9103 1.06911 49.0897 1.06911 51.521 2.70423C53.2826 3.88898 55.477 4.23655 57.5185 3.65415C60.3361 2.85036 63.3598 3.83283 65.1668 6.13924C66.4761 7.81037 68.4557 8.81904 70.5773 8.89601C73.5053 9.00224 76.0775 10.871 77.0833 13.6229C77.8121 15.6168 79.3831 17.1879 81.3771 17.9167C84.129 18.9225 85.9978 21.4947 86.104 24.4227C86.181 26.5443 87.1896 28.5239 88.8608 29.8332C91.1672 31.6402 92.1496 34.6639 91.3458 37.4815C90.7635 39.523 91.111 41.7174 92.2958 43.479C93.9309 45.9103 93.9309 49.0897 92.2958 51.521C91.111 53.2826 90.7635 55.477 91.3458 57.5185C92.1496 60.3361 91.1672 63.3598 88.8608 65.1668C87.1896 66.4761 86.181 68.4557 86.104 70.5773C85.9978 73.5053 84.129 76.0775 81.3771 77.0833C79.3831 77.8121 77.8121 79.3831 77.0833 81.3771C76.0775 84.129 73.5053 85.9978 70.5773 86.104C68.4557 86.181 66.4761 87.1896 65.1668 88.8608C63.3598 91.1672 60.3361 92.1496 57.5185 91.3458C55.477 90.7635 53.2826 91.111 51.521 92.2958C49.0897 93.9309 45.9103 93.9309 43.479 92.2958C41.7174 91.111 39.523 90.7635 37.4815 91.3458C34.6639 92.1496 31.6402 91.1672 29.8332 88.8608C28.5239 87.1896 26.5443 86.181 24.4227 86.104C21.4947 85.9978 18.9225 84.129 17.9167 81.3771C17.1879 79.3831 15.6168 77.8121 13.6229 77.0833C10.871 76.0775 9.00224 73.5053 8.89601 70.5773C8.81904 68.4557 7.81037 66.4761 6.13924 65.1668C3.83283 63.3598 2.85036 60.3361 3.65415 57.5185C4.23655 55.477 3.88898 53.2826 2.70423 51.521C1.06911 49.0897 1.06911 45.9103 2.70423 43.479C3.88898 41.7174 4.23655 39.523 3.65415 37.4815C2.85036 34.6639 3.83283 31.6402 6.13924 29.8332C7.81037 28.5239 8.81904 26.5443 8.89601 24.4227C9.00224 21.4947 10.871 18.9225 13.6229 17.9167C15.6168 17.1879 17.1879 15.6168 17.9167 13.6229C18.9225 10.871 21.4947 9.00224 24.4227 8.89601C26.5443 8.81904 28.5239 7.81037 29.8332 6.13924C31.6402 3.83283 34.6639 2.85036 37.4815 3.65415C39.523 4.23655 41.7174 3.88898 43.479 2.70423Z" fill="#8E15FF"/>

</svg>
