<svg width="95" height="95" viewBox="0 0 95 95" fill="none" xmlns="http://www.w3.org/2000/svg">
<path d="M43.9234 4.93111C45.6875 2.49888 49.3125 2.49888 51.0766 4.93111C52.5109 6.90865 55.2778 7.34689 57.253 5.90936C59.6824 4.14131 63.1299 5.26147 64.056 8.1198C64.809 10.4438 67.3051 11.7156 69.6279 10.9588C72.4847 10.028 75.4173 12.1587 75.4149 15.1633C75.4129 17.6062 77.3938 19.5871 79.8367 19.5851C82.8413 19.5827 84.972 22.5153 84.0412 25.3721C83.2844 27.6949 84.5562 30.191 86.8802 30.944C89.7385 31.8701 90.8587 35.3176 89.0906 37.747C87.6531 39.7222 88.0913 42.4891 90.0689 43.9234C92.5011 45.6875 92.5011 49.3125 90.0689 51.0766C88.0913 52.5109 87.6531 55.2778 89.0906 57.253C90.8587 59.6824 89.7385 63.1299 86.8802 64.056C84.5562 64.809 83.2844 67.3051 84.0412 69.6279C84.972 72.4847 82.8413 75.4173 79.8367 75.4149C77.3938 75.4129 75.4129 77.3938 75.4149 79.8367C75.4173 82.8413 72.4847 84.972 69.6279 84.0412C67.3051 83.2844 64.809 84.5562 64.056 86.8802C63.1299 89.7385 59.6824 90.8587 57.253 89.0906C55.2778 87.6531 52.5109 88.0913 51.0766 90.0689C49.3125 92.5011 45.6875 92.5011 43.9234 90.0689C42.4891 88.0913 39.7222 87.6531 37.747 89.0906C35.3176 90.8587 31.8701 89.7385 30.944 86.8802C30.191 84.5562 27.6949 83.2844 25.3721 84.0412C22.5153 84.972 19.5827 82.8413 19.5851 79.8367C19.5871 77.3938 17.6062 75.4129 15.1633 75.4149C12.1587 75.4173 10.028 72.4847 10.9588 69.6279C11.7156 67.3051 10.4438 64.809 8.1198 64.056C5.26147 63.1299 4.14131 59.6824 5.90936 57.253C7.34689 55.2778 6.90865 52.5109 4.93111 51.0766C2.49888 49.3125 2.49888 45.6875 4.93111 43.9234C6.90865 42.4891 7.34689 39.7222 5.90936 37.747C4.14131 35.3176 5.26147 31.8701 8.1198 30.944C10.4438 30.191 11.7156 27.6949 10.9588 25.3721C10.028 22.5153 12.1587 19.5827 15.1633 19.5851C17.6062 19.5871 19.5871 17.6062 19.5851 15.1633C19.5827 12.1587 22.5153 10.028 25.3721 10.9588C27.6949 11.7156 30.191 10.4438 30.944 8.1198C31.8701 5.26147 35.3176 4.14131 37.747 5.90936C39.7222 7.34689 42.4891 6.90865 43.9234 4.93111Z" fill="#8E15FF"/>

</svg>
